<svg xmlns="http://www.w3.org/2000/svg" width="24" height="24" viewBox="-6.7 0 122.88 122.88" fill="currentColor"><path class="foreground-fill" fill-rule="evenodd" clip-rule="evenodd" d="M2.347 9.633h38.297V3.76c0-2.068 1.689-3.76 3.76-3.76h21.144c2.07 0 3.76 1.691 3.76 3.76v5.874h37.83c1.293 0 2.347 1.057 2.347 2.349v11.514H0V11.982c0-1.292 1.055-2.349 2.347-2.349ZM8.69 29.605h92.921c1.937 0 3.696 1.599 3.521 3.524l-7.864 86.229c-.174 1.926-1.59 3.521-3.523 3.521h-77.3c-1.934 0-3.352-1.592-3.524-3.521L5.166 33.129c-.172-1.932 1.585-3.524 3.524-3.524Zm60.387 13.393h9.866v65.314h-9.866V42.998Zm-39.005 0h9.867v65.314h-9.867V42.998Zm19.5 0h9.869v65.314h-9.869V42.998Z"/></svg>
